<svg width="193" height="212" id="logo" viewBox="0 0 193 212" fill="none" xmlns="http://www.w3.org/2000/svg">
<path d="M96.335 2C32.7774 56.208 55.2673 110.584 96.3349 146.645M96.335 2L96.335 23.5753L96.3349 146.645M96.335 2C100.412 5.47697 104.134 8.95461 107.521 12.4281C107.998 12.9179 108.469 13.4076 108.933 13.8971M96.3349 146.645C113.626 131.461 127.624 113.031 133.293 92.7337M96.3349 146.645V212M96.335 26.4521L108.933 13.8971M96.335 46.589L118.706 24.2945M96.3349 67.5351L126.459 37.5152M96.3349 88.0317L132.63 51.8614M96.3349 108.798L135.901 69.3685M96.3349 129.564L133.293 92.7337M133.293 92.7337C135.402 85.1802 136.358 77.3681 135.901 69.3685M135.901 69.3685C135.572 63.6208 134.514 57.7763 132.63 51.8614M132.63 51.8614C131.12 47.12 129.079 42.3334 126.459 37.5152M126.459 37.5152C122.211 29.7064 116.44 21.8144 108.933 13.8971" stroke="#6FC152" stroke-width="2.33733"/>
<path d="M164.381 71.9399C122.003 108.084 136.999 144.339 164.381 168.383M164.381 71.9399V86.3255L164.381 168.383M164.381 71.9399C167.099 74.2582 169.581 76.577 171.839 78.893C172.157 79.2195 172.471 79.546 172.781 79.8725M164.381 168.383C175.91 158.259 185.243 145.971 189.023 132.437M164.381 168.383V211.959M164.381 88.2436L172.781 79.8725M164.381 101.67L171.839 94.2376L179.297 86.805M164.381 115.636L184.466 95.62M164.381 129.302L188.581 105.185M164.381 143.148L190.762 116.858M164.381 156.995L189.023 132.437M189.023 132.437C190.429 127.401 191.066 122.192 190.762 116.858M190.762 116.858C190.542 113.026 189.837 109.129 188.581 105.185M188.581 105.185C187.574 102.024 186.213 98.8326 184.466 95.62M184.466 95.62C181.634 90.4134 177.786 85.1514 172.781 79.8725M164.38 88.2436L155.98 79.8725M164.38 101.67L156.921 94.2376L149.463 86.805M164.38 115.636L144.294 95.62M164.38 129.302L140.179 105.185M164.38 143.148L137.999 116.858M164.38 156.995L139.738 132.437" stroke="white" stroke-width="2.33733"/>
<path d="M28.4555 71.9399C-13.9221 108.084 1.07324 144.339 28.4555 168.383M28.4555 71.9399V86.3255L28.4555 168.383M28.4555 71.9399C31.1736 74.2582 33.6557 76.577 35.9137 78.893C36.2321 79.2195 36.546 79.546 36.8555 79.8725M28.4555 168.383C39.9847 158.259 49.3179 145.971 53.0973 132.437M28.4555 168.383V211.959M28.4555 88.2436L36.8555 79.8725M28.4555 101.67L43.3719 86.805M28.4555 115.636L48.5407 95.62M28.4555 129.302L52.6557 105.185M28.4555 143.148L54.8362 116.858M28.4555 156.995L53.0973 132.437M53.0973 132.437C54.5038 127.401 55.1411 122.192 54.8362 116.858M54.8362 116.858C54.6172 113.026 53.9117 109.129 52.6557 105.185M52.6557 105.185C51.6488 102.024 50.2882 98.8326 48.5407 95.62M48.5407 95.62C45.7086 90.4134 41.8604 85.1514 36.8555 79.8725M28.4544 88.2436L20.0544 79.8725M28.4544 101.67L13.538 86.805M28.4544 115.636L8.36924 95.62M28.4544 129.302L4.25427 105.185M28.4544 143.148L2.07368 116.858M28.4544 156.995L3.81259 132.437" stroke="white" stroke-width="2.33733"/>
</svg>
