<svg width="59" height="71" viewBox="0 0 59 71" fill="none" xmlns="http://www.w3.org/2000/svg">
<g clip-path="url(#clip0_35_918)">
<path fill-rule="evenodd" clip-rule="evenodd" d="M8.75768 1.054C8.69865 1.4559 8.41091 4.7324 8.43271 4.75421C8.44557 4.76702 9.4634 4.79315 10.6946 4.8123C11.9258 4.8315 12.9606 4.8641 12.9941 4.88479C13.0417 4.91419 12.9347 6.14254 12.5056 10.489C12.2033 13.5507 11.9565 16.1144 11.9572 16.1863C11.9581 16.2936 11.9867 16.323 12.1176 16.3514C12.4268 16.4184 14.2417 17.022 14.5439 17.1583L14.8501 17.2965L14.8731 17.1896C14.8858 17.1308 15.2058 14.3868 15.5842 11.0918C15.9627 7.79681 16.2832 5.0349 16.2965 4.95418L16.3207 4.80746L18.8668 4.82415L21.4127 4.84081L21.4398 4.67744C21.4547 4.58755 21.5556 3.76579 21.664 2.85127C21.7724 1.93674 21.873 1.11694 21.8873 1.02955L21.9135 0.870605H15.349H8.78462L8.75768 1.054ZM22.3768 0.980642C22.3661 1.01429 21.9245 5.23416 21.3955 10.3582C20.8664 15.4822 20.4219 19.7422 20.4077 19.8247C20.3828 19.9696 20.4086 19.9948 21.1445 20.5459C22.4522 21.5253 23.5587 22.5054 23.822 22.9177C23.8876 23.0204 23.9859 22.1801 24.8752 13.9192L25.8561 4.80746L28.7053 4.82717L31.5545 4.84689L31.5843 4.65601C31.6007 4.55102 31.691 3.7389 31.785 2.85127C31.8791 1.96364 31.966 1.16589 31.9784 1.07845L32.0007 0.919511H27.1985C23.3997 0.919511 22.3921 0.932275 22.3768 0.980642ZM32.5461 1.02955C32.5461 1.15303 29.6232 30.6134 29.5797 30.9283L29.552 31.1294L29.8603 31.1886C30.4582 31.3034 32.1329 31.7227 32.4147 31.8282C32.5716 31.8869 32.7069 31.9273 32.7155 31.918C32.7241 31.9086 33.4313 25.8379 34.287 18.4276C35.1428 11.0172 35.8566 4.94319 35.8734 4.92973C35.8901 4.91628 36.7145 4.91203 37.7053 4.9203L39.5066 4.93532V5.08051C39.5066 5.23763 36.9764 33.4364 36.9334 33.7594L36.9073 33.955L37.5085 34.3818C38.3223 34.9595 39.0572 35.581 39.4101 35.9903C39.5711 36.1768 39.7026 36.3087 39.7026 36.2834C39.7026 36.2067 43.2285 1.35115 43.259 1.12736L43.2873 0.919511H37.9166H32.5461V1.02955ZM45.7805 1.02955C45.7801 1.09009 46.0689 5.99221 46.4222 11.9232L47.0647 22.7068L42.1581 39.8195C39.4597 49.2316 37.2584 56.9387 37.2663 56.9466C37.2742 56.9548 42.1086 44.3683 48.009 28.977C53.9095 13.5857 58.7459 0.976387 58.7567 0.95619C58.7679 0.935992 58.1515 0.919511 57.3872 0.919511H55.9971L52.869 8.41424C51.1487 12.5363 49.7266 15.9246 49.7088 15.9439C49.6912 15.9631 49.5261 12.805 49.3424 8.92599C49.1583 5.0469 48.9955 1.65861 48.9802 1.39634L48.9526 0.919511H47.3669H45.7812L45.7805 1.02955ZM7.00529 15.7491C7.00324 15.9486 7.95141 49.842 7.95939 49.8558C7.96155 49.8595 8.40443 49.8398 8.94364 49.8126C10.0286 49.7571 11.6671 49.8156 12.7426 49.9479C15.9693 50.3451 18.6399 51.2887 21.0512 52.883C22.2225 53.657 23.2941 54.576 23.9866 55.3992C24.3107 55.7846 24.3609 55.8267 24.3815 55.7305C24.3946 55.6698 24.9261 49.9751 25.5628 43.0759C26.3679 34.3516 26.7107 30.4497 26.6884 30.2626C26.6021 29.5397 26.3208 28.4713 25.993 27.6218C24.8002 24.5298 22.1937 21.7969 18.3363 19.5936C15.5219 17.986 11.6951 16.5563 8.15646 15.7904C7.64579 15.6798 7.17839 15.5784 7.11768 15.5649C7.01691 15.5424 7.00723 15.5583 7.00529 15.7491ZM5.59858 18.6252C5.21466 18.6953 4.88604 18.7672 4.86834 18.7848C4.82675 18.8263 7.11034 51.0092 7.15883 51.0651C7.17921 51.089 7.45148 51.0722 7.77537 51.0275C10.256 50.6835 12.6264 50.748 14.9335 51.2213C16.183 51.4777 17.8439 52.024 18.7351 52.4719C18.8901 52.5498 19.017 52.6027 19.017 52.589C19.017 52.5752 18.7578 52.4347 18.441 52.2763C15.9234 51.0185 13.073 50.3638 10.1105 50.363C9.36203 50.3626 8.36101 50.4275 7.81912 50.511C7.65891 50.5356 7.5233 50.5508 7.51774 50.5449C7.51219 50.5389 7.25114 43.4474 6.93761 34.7864C6.62409 26.1252 6.35159 18.9171 6.33206 18.7683L6.29662 18.4976L5.59858 18.6252ZM3.65748 21.2902C3.36523 21.3793 3.12117 21.4594 3.11509 21.4682C3.10901 21.477 3.85546 27.8088 4.77387 35.539C5.69227 43.2693 6.4499 49.5625 6.4575 49.5241C6.46507 49.4861 5.9743 43.1016 5.36686 35.337C4.75937 27.5723 4.26237 21.1965 4.26237 21.1684C4.26237 21.1035 4.28398 21.0992 3.65748 21.2902ZM2.16814 24.0441C1.84232 24.2676 1.76541 24.3441 1.76678 24.4429C1.76904 24.6061 5.67237 47.8684 5.67885 47.7573C5.68426 47.6645 2.60284 23.7976 2.58304 23.7788C2.57652 23.7726 2.38985 23.892 2.16814 24.0441ZM1.08841 25.9884C0.946895 26.0814 0.830182 26.1843 0.829104 26.2171C0.825672 26.324 4.52623 45.3231 4.54654 45.3026C4.57475 45.2746 1.40443 25.8115 1.37238 25.8158C1.35772 25.8178 1.22998 25.8955 1.08841 25.9884ZM27.3476 31.5146C27.3462 31.5926 26.8328 37.1197 26.2066 43.797C25.5804 50.4744 25.0744 55.9377 25.0822 55.9377C25.09 55.9377 25.3443 55.8628 25.6472 55.7715C26.2412 55.5919 27.1576 55.394 27.8648 55.2923C28.4671 55.2055 30.7598 55.2073 31.3451 55.2945C33.0303 55.5464 34.6255 56.0745 35.8563 56.7878C36.1521 56.9592 36.3996 57.0856 36.4063 57.0688C36.413 57.052 37.5291 53.0813 38.8865 48.2452L41.3543 39.4521L41.0614 38.9777C39.1988 35.96 36.1512 33.699 32.1785 32.3869C30.6717 31.8894 28.8366 31.4809 27.7545 31.4023L27.3501 31.3729L27.3476 31.5146ZM49.8228 32.4366C49.904 33.4938 50.3665 35.7801 50.5357 35.9598C50.6781 36.111 51.6187 36.6648 51.7592 36.6804C51.9105 36.6971 51.9817 36.5636 52.0521 36.1308C52.1576 35.4835 52.1285 35.2748 51.8635 34.7771C51.3873 33.8824 50.6162 32.8006 50.0919 32.2922L49.7893 31.9988L49.8228 32.4366ZM23.4286 32.1794C24.2126 32.3274 24.5137 32.7295 24.5204 33.6371C24.5261 34.414 24.3157 34.8858 23.9007 35.0264L23.7111 35.0908L23.8517 35.1257C24.0586 35.1772 24.2988 35.3777 24.4068 35.5889C24.6236 36.013 24.6577 36.8984 24.4774 37.422C24.3691 37.7366 24.0964 38.0033 23.7654 38.1183C23.5431 38.1954 23.3573 38.2096 22.5708 38.2077C21.7145 38.2062 21.6164 38.1969 21.3536 38.0929C20.9859 37.9472 20.7698 37.7552 20.6459 37.4643C20.4316 36.9609 20.4661 36.1021 20.721 35.5955C20.867 35.3052 21.0014 35.1852 21.2992 35.0794C21.4351 35.0311 21.4597 35.0101 21.3823 35.0086C21.3217 35.0074 21.1851 34.928 21.0788 34.8322C20.8197 34.5986 20.7115 34.2752 20.7117 33.7349C20.7119 32.9402 20.9176 32.5037 21.3943 32.2859C21.8229 32.0901 22.71 32.0437 23.4286 32.1794ZM18.5066 32.4832C18.8754 32.5971 19.075 32.7505 19.213 33.0258C19.32 33.2392 19.3348 33.3293 19.329 33.7349C19.3193 34.4253 19.1286 34.8471 18.7441 35.0292L18.5637 35.1145L18.7781 35.2102C18.896 35.2629 19.0419 35.3522 19.1022 35.4088C19.5026 35.7838 19.5362 37.071 19.1598 37.619C18.8886 38.0138 18.4893 38.1507 17.6199 38.147C17.062 38.1444 15.9041 38.0302 15.8456 37.9718C15.8341 37.9604 15.8433 37.8221 15.866 37.6647C15.901 37.4215 15.9218 37.3796 16.0039 37.3872C17.3822 37.5144 18.0773 37.4921 18.3307 37.3127C18.3981 37.2649 18.5042 37.1281 18.5664 37.0086C18.664 36.8213 18.6774 36.733 18.6644 36.3671C18.6525 36.0304 18.6284 35.9147 18.5482 35.8077C18.3222 35.5058 18.251 35.4828 17.3766 35.4308L16.566 35.3827V35.2495C16.566 35.1764 16.5798 35.0477 16.5967 34.9636L16.6273 34.8108L17.3442 34.8107C18.1808 34.8107 18.3341 34.7619 18.4989 34.444C18.6363 34.1789 18.6436 33.5295 18.5113 33.3351C18.3603 33.1133 18.1923 33.081 17.1052 33.0651L16.1003 33.0504L16.0858 32.761L16.0714 32.4716L16.4045 32.4404C16.5877 32.4233 16.7817 32.401 16.8356 32.3909C17.0802 32.3449 18.2725 32.4108 18.5066 32.4832ZM14.2777 32.8726C14.6027 33.0312 14.7573 33.214 14.8827 33.5882C14.961 33.8217 14.9726 34.0186 14.9705 35.0798C14.9674 36.6882 14.8576 37.1967 14.4189 37.6344C14.133 37.9196 13.8788 38.0022 13.2083 38.0279C12.6401 38.0496 11.9296 37.9806 11.8442 37.8954C11.8218 37.873 11.8188 37.7528 11.8375 37.6282L11.8715 37.4017L12.6624 37.4105C13.1964 37.4163 13.5011 37.3996 13.6004 37.3588C13.9997 37.1949 14.2012 36.7944 14.291 35.9865L14.3262 35.6707L14.1205 35.8463C14.0074 35.9429 13.8111 36.052 13.6841 36.0888C13.3492 36.1859 12.7192 36.175 12.4394 36.0673C12.1812 35.9679 11.901 35.6874 11.7863 35.4135C11.564 34.8828 11.5995 33.9381 11.8616 33.4069C12.1293 32.8643 12.5056 32.6972 13.4072 32.7207C13.937 32.7345 14.0273 32.7503 14.2777 32.8726ZM22.0131 32.8029C21.6055 32.9061 21.475 33.1394 21.4706 33.7731C21.4658 34.4835 21.6021 34.6337 22.3252 34.7156C22.7971 34.7691 23.3211 34.7136 23.51 34.5901C23.6983 34.467 23.7718 34.2307 23.7717 33.7487C23.7716 32.9714 23.5791 32.7972 22.6952 32.7743C22.4111 32.7669 22.1042 32.7798 22.0131 32.8029ZM10.5189 33.5515C10.5027 33.7734 10.475 34.8407 10.4574 35.9234L10.4253 37.8918H10.0923H9.7593L9.78538 36.7059C9.79977 36.0536 9.82582 35.1226 9.8433 34.637L9.87501 33.754L9.31485 33.9151C9.00677 34.0037 8.74579 34.0673 8.73491 34.0564C8.72403 34.0456 8.71139 33.9332 8.70685 33.8066L8.69854 33.5764L9.23775 33.367C9.70045 33.1873 9.83171 33.1569 10.1626 33.1528L10.5484 33.148L10.5189 33.5515ZM12.8702 33.3427C12.6746 33.405 12.4628 33.6189 12.3891 33.8286C12.355 33.9257 12.3272 34.2329 12.3267 34.5174C12.3261 34.9439 12.3426 35.059 12.424 35.1969C12.5907 35.4794 12.7523 35.565 13.1576 35.5854C13.5698 35.6061 13.7631 35.555 14.0907 35.3386L14.3219 35.1858L14.3036 34.5213C14.283 33.7724 14.2222 33.5969 13.9227 33.4225C13.7364 33.3139 13.1095 33.2664 12.8702 33.3427ZM21.8018 35.4721C21.6756 35.5125 21.5279 35.6016 21.4739 35.6702C21.2594 35.9422 21.2108 36.8041 21.3905 37.1507C21.5167 37.3943 21.8152 37.5064 22.4191 37.5369C23.5694 37.595 23.8654 37.3321 23.8111 36.3002C23.7859 35.8211 23.7087 35.6748 23.4009 35.522C23.1415 35.3932 22.1461 35.3622 21.8018 35.4721ZM52.7158 37.3351C52.6696 38.1237 52.7147 39.4405 52.8149 40.2313C52.8962 40.8745 53.065 41.8006 53.1086 41.8442C53.1652 41.9005 53.4406 41.5699 53.5968 41.2584C53.9967 40.4609 53.9296 39.3541 53.4004 38.0287C53.2353 37.6148 52.9122 36.9411 52.7982 36.7727C52.768 36.728 52.74 36.9186 52.7158 37.3351ZM50.9065 37.194C51.0302 38.4187 51.5658 40.0405 52.2246 41.1883L52.3905 41.4768L52.4311 41.2371C52.4538 41.1052 52.4706 40.5682 52.4684 40.0435C52.4654 39.23 52.4497 39.0347 52.361 38.7134C52.1117 37.8115 51.6846 37.2483 51.0496 36.9835L50.8778 36.912L50.9065 37.194ZM53.8103 41.447C53.4697 41.7958 53.166 42.6365 53.0359 43.5894C53.0065 43.8045 52.9625 44.4756 52.9383 45.0808C52.8932 46.2111 52.7929 46.8752 52.5481 47.6705C52.4944 47.8438 52.4572 47.9921 52.4654 48.0003C52.4732 48.0081 52.7374 47.631 53.0523 47.1618C53.8491 45.9749 54.028 45.5034 54.1208 44.3474C54.1923 43.4541 54.1558 41.6389 54.0619 41.4227L53.9918 41.261L53.8103 41.447ZM51.7197 41.8409C51.7763 42.3484 51.7677 43.5786 51.7059 43.8667C51.6757 44.0083 51.6068 44.208 51.5531 44.3105C51.4245 44.5569 51.3928 45.0074 51.4629 45.5981C51.5885 46.6617 51.8915 47.7059 52.0335 47.5647C52.0525 47.5453 52.1318 47.1603 52.2094 46.7086C52.4251 45.4516 52.5977 44.631 52.6789 44.4741C52.7318 44.3717 52.7516 44.1801 52.7497 43.7895C52.746 42.9857 52.5626 42.36 52.1941 41.8927C52.0744 41.741 51.7789 41.5107 51.704 41.5107C51.6925 41.5107 51.6992 41.6594 51.7197 41.8409ZM4.56603 45.4967C4.567 45.5772 4.578 45.6044 4.59044 45.5567C4.60289 45.509 4.60207 45.4431 4.58862 45.4099C4.5752 45.3771 4.56506 45.4159 4.56603 45.4967ZM4.61325 45.7654C4.61325 45.8329 4.62436 45.8605 4.63796 45.8265C4.65156 45.793 4.65156 45.7382 4.63796 45.7043C4.62436 45.6708 4.61325 45.6983 4.61325 45.7654ZM4.65838 46.0386C4.66073 46.0956 4.67235 46.1072 4.68801 46.068C4.70217 46.033 4.70038 45.9905 4.68413 45.9745C4.66785 45.9581 4.65629 45.9872 4.65838 46.0386ZM51.0612 47.2818C51.0492 47.3221 50.9911 47.5311 50.9319 47.7461C50.7876 48.2705 50.5711 48.73 50.2555 49.1817C49.9689 49.5916 49.8172 49.9989 49.657 50.7893C49.5232 51.4512 49.3342 53.2989 49.4009 53.2952C49.515 53.2885 50.5491 51.7016 50.8819 51.023C51.53 49.7 51.6973 48.7017 51.4193 47.8132C51.3127 47.4726 51.0984 47.1547 51.0612 47.2818ZM53.5107 47.7223C53.1194 48.3883 52.5865 49.1269 52.111 49.6631C51.7212 50.1021 51.7066 50.1275 51.4856 50.7633C51.0716 51.9551 50.5633 53.0078 50.0896 53.6555L49.8455 53.9894L50.6442 53.4487C51.0835 53.1513 51.6966 52.7138 52.0066 52.4764L52.5701 52.0445L52.708 51.6562C53.169 50.3574 53.7522 48.1915 53.804 47.5874C53.8208 47.3925 53.826 47.2337 53.8152 47.2349C53.8044 47.2363 53.6676 47.4555 53.5107 47.7223ZM5.69346 47.9906C5.69443 48.0715 5.70543 48.0987 5.71787 48.051C5.73032 48.0033 5.7295 47.9373 5.71605 47.9042C5.70263 47.871 5.69249 47.9101 5.69346 47.9906ZM5.7368 48.3372C5.73915 48.3942 5.75078 48.4058 5.76639 48.3666C5.78055 48.3316 5.7788 48.2891 5.76252 48.2731C5.74627 48.2567 5.73468 48.2858 5.7368 48.3372ZM6.47778 49.8491C6.47875 49.93 6.48974 49.9568 6.50219 49.9095C6.51463 49.8618 6.51378 49.7958 6.50036 49.7627C6.48695 49.7295 6.47677 49.7686 6.47778 49.8491ZM9.8995 51.2231C9.77819 51.2336 9.39215 51.2652 9.04169 51.2939C8.37093 51.3483 7.48513 51.4549 6.97063 51.5429L6.66426 51.5954V51.7646C6.66426 51.904 6.67961 51.9293 6.75005 51.907C6.92602 51.8515 8.28268 51.6372 8.99265 51.5529C10.0353 51.4292 12.9261 51.4285 13.8397 51.5518C15.1441 51.7277 16.3859 52.0206 17.2646 52.3594C17.4735 52.4399 17.6444 52.4969 17.6444 52.4861C17.6444 52.4459 16.965 52.1596 16.4375 51.9774C15.5218 51.661 14.5746 51.4564 13.3553 51.3115C12.7962 51.2447 10.3684 51.1829 9.8995 51.2231ZM9.31128 51.9081C9.21692 51.9185 8.88606 51.9513 8.576 51.9804C8.00478 52.0337 7.07725 52.1757 6.65204 52.2744C6.44983 52.3214 6.41919 52.3449 6.41919 52.4526C6.41919 52.5953 6.33296 52.5998 7.49758 52.3989C9.63315 52.0303 11.7854 51.948 13.9632 52.1518C14.3785 52.1906 14.7261 52.2148 14.7356 52.2051C14.7518 52.1891 14.1589 52.0985 13.2083 51.9722C12.8266 51.9215 9.65443 51.8693 9.31128 51.9081ZM14.8381 52.2536C14.8718 52.267 14.927 52.267 14.9607 52.2536C14.9944 52.2398 14.9668 52.229 14.8994 52.229C14.832 52.229 14.8045 52.2398 14.8381 52.2536ZM9.56085 52.466C8.7029 52.5256 7.83581 52.6415 6.99441 52.8099C6.59632 52.8893 6.25992 52.9545 6.24687 52.9545C6.23379 52.9545 6.2231 53.0056 6.2231 53.0682V53.1819L6.75005 53.0697C8.13003 52.7768 9.566 52.6273 11.4926 52.5759C12.3443 52.5536 12.7113 52.5297 12.522 52.5096C11.9664 52.4503 10.1686 52.4239 9.56085 52.466ZM48.0288 53.1625C46.9264 54.4609 45.7417 55.9888 44.8074 57.317C44.3334 57.9904 43.3794 59.4617 43.3794 59.5183C43.3794 59.5675 44.036 59.1632 44.6535 58.7342C45.9057 57.8641 47.2145 56.6708 47.8544 55.8155C48.5214 54.9241 48.858 54.0237 48.8047 53.2739C48.7763 52.8737 48.688 52.5144 48.618 52.5144C48.5963 52.5144 48.3314 52.8062 48.0288 53.1625ZM15.008 53.7737C16.2234 56.0477 17.9733 58.3131 19.324 59.3618L19.6065 59.5809L21.3826 59.8098C22.3594 59.9353 23.1624 60.0345 23.1672 60.0296C23.1969 59.9998 19.0229 56.4953 17.6199 55.3717C16.1954 54.2309 15.0328 53.3947 14.8715 53.3947C14.8278 53.3947 14.874 53.5229 15.008 53.7737ZM51.3142 53.6313C50.5446 54.1344 49.7386 54.8309 48.3057 56.2318C47.4064 57.1109 47.1698 57.3077 45.4492 58.606L43.5732 60.0214L43.9447 60.0356C44.699 60.065 46.9141 59.6875 47.178 59.4852C47.7474 59.0488 49.1811 57.5883 49.8355 56.7785C50.6948 55.7149 51.5464 54.2838 51.7834 53.505C51.8352 53.335 51.72 53.366 51.3142 53.6313ZM28.808 55.8431C28.1495 55.89 27.3817 56.0097 26.9335 56.1349C26.5707 56.2362 26.5748 56.2363 27.4727 56.1245C27.7546 56.089 28.4939 56.0641 29.2128 56.0656C30.2422 56.0674 30.5839 56.0864 31.1491 56.1733C32.7796 56.4248 34.2216 56.9156 35.2256 57.5615C35.41 57.68 35.5883 57.7936 35.6221 57.8141C35.6819 57.8499 35.7153 57.7944 35.803 57.5138C35.8353 57.4102 35.7851 57.377 35.0865 57.0405C33.6087 56.3287 32.2195 55.9605 30.5594 55.8412C29.8056 55.7872 29.5874 55.7872 28.808 55.8431ZM54.3794 56.0562C54.1547 56.1539 53.9009 56.439 53.7019 56.8169C53.4839 57.2301 53.4078 57.5887 53.4805 57.8577C53.586 58.2494 54.1577 58.71 54.8326 58.9474C55.6003 59.218 56.0545 58.9951 56.4559 58.1518C56.751 57.5316 56.735 57.1579 56.3974 56.7852C55.8756 56.209 54.8668 55.8446 54.3794 56.0562ZM55.364 56.7174C55.5835 56.8236 55.8578 57.0017 55.9737 57.1139C56.1809 57.3147 56.1838 57.3218 56.1637 57.5987C56.1481 57.8115 56.1037 57.9416 55.98 58.1335C55.6856 58.5919 55.3778 58.6355 54.7215 58.312C54.3034 58.1055 53.9907 57.8327 53.9396 57.6296C53.8826 57.4034 54.0406 56.992 54.2806 56.7423C54.4718 56.5433 54.5098 56.5247 54.7275 56.5247C54.9037 56.5247 55.0677 56.5743 55.364 56.7174ZM28.404 56.6678C28.0606 56.7099 28.0353 56.7058 29.0421 56.771C31.0737 56.903 32.9447 57.3419 34.3522 58.0172C34.6611 58.1655 34.9206 58.28 34.9287 58.2721C34.9369 58.2639 34.9579 58.1678 34.9754 58.0582L35.0073 57.8592L34.5733 57.6777C33.5634 57.2559 32.4062 56.9369 31.2716 56.7673C30.5578 56.6607 28.9247 56.6041 28.404 56.6678ZM22.5038 56.9779C23.0635 58.0265 24.2165 59.7117 24.8413 60.3937C25.0683 60.6415 25.1542 60.693 25.7656 60.9497C27.0679 61.4964 28.5913 61.9433 29.8474 62.1467C30.4398 62.2429 31.7078 62.3659 31.7431 62.3305C31.7527 62.3208 31.0495 61.7871 30.1804 61.1446L28.6001 59.9763L27.9684 59.7661C26.3376 59.2224 24.6512 58.3709 23.0579 57.2853C22.645 57.0043 22.4645 56.9041 22.5038 56.9779ZM43.9991 57.0699C42.9419 57.8182 40.5344 59.0775 38.9678 59.7013L38.0614 60.0624L36.5905 61.161C35.7815 61.7655 35.0975 62.2817 35.0705 62.3081C35.0382 62.3402 35.2292 62.3457 35.6343 62.3241C36.8059 62.2619 37.901 62.0469 39.147 61.6336C39.8558 61.3984 40.9865 60.9345 41.4303 60.6963C41.7657 60.5163 42.8617 59.2411 43.5005 58.2874C43.7964 57.8451 44.3476 56.8672 44.3006 56.8672C44.2928 56.8672 44.1571 56.9585 43.9991 57.0699ZM30.3402 57.4854C31.2681 57.5954 32.3443 57.9699 33.2692 58.505L33.5757 58.6824L33.626 58.5505C33.6536 58.4778 33.6688 58.4111 33.6597 58.4018C33.6195 58.3619 32.9706 58.0862 32.5342 57.9237C31.857 57.6718 31.1231 57.5037 30.6099 57.4832C30.3672 57.4731 30.2459 57.4742 30.3402 57.4854ZM12.473 58.9739C11.9068 59.4587 11.4139 59.8847 11.3777 59.9204C11.3227 59.9745 11.3348 60.0106 11.4512 60.1407L11.5907 60.2957L12.9387 60.2182C13.6801 60.1753 14.3253 60.1288 14.3725 60.1142C14.4196 60.1001 14.4582 60.0963 14.4582 60.106C14.4582 60.1157 14.0722 60.4507 13.6004 60.8506C13.1286 61.2505 12.7426 61.5915 12.7426 61.6082C12.7426 61.625 12.8033 61.7104 12.8774 61.7976L13.0122 61.9563L14.1028 61.022C14.7027 60.5081 15.1928 60.0729 15.1919 60.0546C15.1911 60.0363 15.1359 59.9596 15.0692 59.8839L14.948 59.7464L13.5879 59.8254C12.8399 59.8686 12.1838 59.9163 12.1299 59.9312C12.0023 59.9666 11.9845 59.9834 13.0031 59.1185L13.8274 58.419L13.6675 58.2542C13.5796 58.1637 13.505 58.091 13.505 58.091C13.505 58.091 13.0391 58.489 12.473 58.9739ZM52.4583 59.0312C52.2164 59.3339 51.972 59.6585 51.9146 59.7524C51.7812 59.9726 51.7804 60.2391 51.9127 60.4071C51.969 60.4783 52.4378 60.8566 52.9543 61.2471L53.8938 61.9578L54.0522 61.7722C54.1394 61.6701 54.2102 61.5754 54.2091 61.562C54.208 61.5486 53.81 61.2404 53.324 60.8774C52.4631 60.2338 52.3007 60.0889 52.3007 59.9629C52.3007 59.9294 52.5075 59.6275 52.7602 59.2921L53.22 58.6824L53.1123 58.5814C53.0534 58.5263 52.9808 58.4808 52.9513 58.4808C52.9219 58.4808 52.6998 58.7286 52.4583 59.0312ZM21.0842 60.6665C22.6258 62.0428 25.3566 63.3732 28.0895 64.0798L28.7434 64.249L30.0597 63.5778C31.5395 62.8235 31.4897 62.8992 30.5953 62.7646C29.0401 62.5306 27.2271 61.96 25.5365 61.1726L24.9237 60.8871L24.1526 60.8569C22.9965 60.8122 21.3849 60.6341 20.9617 60.5044C20.9124 60.4895 20.9675 60.5622 21.0842 60.6665ZM45.2666 60.5853C44.6014 60.7179 43.7379 60.8193 42.7104 60.8856L41.7862 60.9453L41.4587 61.1301C40.2408 61.8184 38.1166 62.4963 36.1326 62.8295C35.6652 62.9077 35.2754 62.9797 35.2662 62.989C35.257 62.9979 35.8771 63.2852 36.6443 63.627L38.0391 64.2486L39.1526 63.8778C41.7154 63.0251 43.6652 62.1788 44.7981 61.4264C45.3176 61.0817 45.9463 60.4604 45.7443 60.4917C45.7242 60.4947 45.5092 60.5368 45.2666 60.5853ZM14.9096 61.9176L13.964 62.9558L14.1235 63.0903C14.2112 63.1641 14.2968 63.2249 14.3137 63.2249C14.3306 63.2249 14.726 62.8053 15.1924 62.2925C15.6798 61.7566 16.0587 61.3787 16.0835 61.4033C16.1082 61.4279 15.9699 61.8881 15.758 62.4855C15.5554 63.0572 15.39 63.5729 15.3905 63.6315C15.3915 63.7585 15.7296 64.0563 15.8729 64.0563C15.9267 64.0563 16.4079 63.8047 16.9423 63.4973C17.4927 63.1805 17.9328 62.9566 17.9573 62.9804C17.9956 63.0177 17.4511 63.7749 16.7004 64.7282L16.4599 65.0338L16.6204 65.1683C16.7087 65.2425 16.7969 65.3032 16.8164 65.3032C16.8763 65.3032 18.5258 63.1075 18.5247 63.0292C18.5241 62.9886 18.4306 62.8768 18.3168 62.7799C17.9053 62.4303 18.0073 62.4136 17.0008 62.9964C16.5055 63.2834 16.0406 63.5558 15.9675 63.6016C15.8945 63.6475 15.8207 63.671 15.8034 63.6538C15.7779 63.6285 16.3429 61.9828 16.5181 61.5717C16.5445 61.5102 16.566 61.4286 16.566 61.3914C16.566 61.303 16.0433 60.8771 15.9366 60.8782C15.8918 60.8786 15.4297 61.3463 14.9096 61.9176ZM50.5603 61.3347C50.2294 61.4886 49.803 61.8874 49.6298 62.2049C49.3525 62.7132 49.4732 63.1328 50.0777 63.7641C50.6926 64.4062 51.1245 64.5486 51.6511 64.2825C52.0044 64.1036 52.424 63.6788 52.5775 63.3449C52.8026 62.8537 52.6662 62.4669 52.0394 61.8192C51.4759 61.2371 51.0619 61.1014 50.5603 61.3347ZM51.274 61.8468C51.764 62.1579 52.2481 62.8377 52.1792 63.119C52.0901 63.4835 51.6015 63.9095 51.2725 63.9095C50.971 63.9095 50.4556 63.5059 50.1239 63.0102C49.9473 62.7456 49.9514 62.4695 50.1366 62.2172C50.5048 61.7156 50.8759 61.5945 51.274 61.8468ZM32.9067 62.5064C32.5766 62.8082 32.6462 63.3411 33.0422 63.5457C33.4551 63.7589 33.9676 63.4582 33.9676 63.0028C33.9676 62.5742 33.7374 62.3443 33.3076 62.3443C33.1227 62.3443 33.0532 62.3726 32.9067 62.5064ZM47.5831 63.728C46.9972 64.1372 46.5176 64.4938 46.5172 64.5206C46.5172 64.5475 46.5664 64.6306 46.6268 64.7051L46.7371 64.8404L47.1538 64.546C47.3829 64.3842 47.5857 64.2519 47.6047 64.2519C47.63 64.2519 48.7178 65.7635 49.0249 66.2256C49.0722 66.2964 49.4684 66.0132 49.4367 65.9308C49.4143 65.8727 48.6276 64.7379 48.2013 64.1491L48.0385 63.924L48.4804 63.6192L48.9224 63.3139L48.8248 63.16C48.7711 63.0754 48.7096 63.0013 48.688 62.9949C48.6664 62.989 48.1693 63.3188 47.5831 63.728ZM22.914 64.3939C22.7538 64.4647 22.5736 64.6921 22.3485 65.1076C21.5833 66.52 21.0658 67.0883 20.5444 67.0883C20.3613 67.0883 20.3501 67.0973 20.3025 67.2843C20.2455 67.5083 20.2547 67.5184 20.5512 67.559C21.2183 67.6503 21.8749 67.0496 22.6693 65.6211C23.014 65.0014 23.1532 64.8385 23.3389 64.8385C23.4142 64.8385 23.6654 64.9261 23.8972 65.0327C24.2466 65.1937 24.3136 65.2425 24.2896 65.3178C24.2737 65.3677 23.9411 66.1201 23.5505 66.9903C23.16 67.8601 22.8404 68.5872 22.8404 68.6058C22.8404 68.6248 22.947 68.6844 23.0773 68.7385L23.3142 68.8365L24.1372 66.9966C24.5898 65.9845 24.9694 65.1326 24.9808 65.1035C24.9921 65.0744 24.6648 64.9011 24.2518 64.7174C23.4944 64.3805 23.1383 64.2944 22.914 64.3939ZM45.6471 64.9082C44.9897 65.1519 44.4925 65.5574 44.4273 65.9029C44.3025 66.5684 44.9118 67.7576 45.498 67.9917C45.8017 68.1128 46.1353 68.0561 46.654 67.7953C46.8884 67.6775 47.1746 67.4975 47.2898 67.3958L47.5 67.2105L47.3882 67.0745L47.2764 66.9389L47.1027 67.0574C46.7058 67.3279 46.2034 67.546 45.9687 67.5497C45.7633 67.5523 45.7145 67.531 45.5401 67.3611C45.2587 67.0868 44.9927 66.5588 44.961 66.2103C44.9368 65.9405 44.9431 65.92 45.1097 65.7363C45.2267 65.607 45.4372 65.4721 45.751 65.3256C46.2146 65.1091 46.2653 65.0565 46.1926 64.8672C46.1524 64.7625 46.0108 64.7733 45.6471 64.9082ZM17.9897 65.6498C17.9112 65.7735 17.8588 65.9051 17.8732 65.9424C17.8875 65.9796 17.9753 66.0571 18.0683 66.1145C18.2235 66.2103 18.2445 66.2125 18.3234 66.1414C18.453 66.024 18.6238 65.6979 18.5852 65.6409C18.5247 65.5518 18.3112 65.4255 18.2207 65.4255C18.1693 65.4255 18.0729 65.519 17.9897 65.6498ZM28.3114 66.1939C28.2109 66.6873 27.6431 70.1356 27.6596 70.152C27.6708 70.1632 27.789 70.1852 27.9224 70.2008L28.1648 70.2295L28.3295 69.2703C28.4534 68.5488 28.5116 68.311 28.5642 68.311C28.6418 68.311 30.4056 68.604 30.4198 68.6192C30.4247 68.6245 30.3539 69.0571 30.2624 69.5803C30.1709 70.1039 30.1124 70.547 30.1324 70.5649C30.1524 70.5832 30.2713 70.6126 30.3967 70.6305L30.6248 70.6629L30.6842 70.3059C30.717 70.1099 30.8717 69.201 31.0282 68.2864C31.1845 67.3719 31.2978 66.6091 31.2798 66.5908C31.2618 66.5729 31.1455 66.5435 31.0213 66.5252L30.7955 66.4924L30.7168 66.9247C30.6735 67.1625 30.6121 67.5221 30.5803 67.7241C30.5485 67.9257 30.5083 68.1068 30.491 68.1266C30.4575 68.1649 28.6749 67.8776 28.6124 67.824C28.5829 67.7986 28.7438 66.7302 28.8464 66.2714C28.8671 66.1786 28.8445 66.1593 28.6862 66.1324C28.5849 66.1157 28.4654 66.0918 28.4206 66.0795C28.3626 66.0639 28.3311 66.0966 28.3114 66.1939ZM42.5949 66.3814C41.8365 66.6497 41.7676 66.6855 41.6558 66.8681C41.5377 67.0607 41.5432 67.2392 41.6886 67.944C41.7553 68.2667 41.8097 68.6684 41.8101 68.8365C41.8105 69.1186 41.797 69.157 41.6353 69.3359L41.4598 69.5297L41.5477 69.6783C41.6565 69.8624 41.6972 69.8628 41.945 69.6839C42.337 69.4003 42.3858 68.9539 42.1529 67.7886C42.0296 67.1725 42.0434 67.0346 42.2383 66.9441C42.517 66.8151 42.9087 66.697 42.9396 66.7332C42.9571 66.7537 43.1457 67.2739 43.3593 67.8892C43.5724 68.5044 43.7725 69.0176 43.8038 69.0299C43.8355 69.0418 43.9488 69.0117 44.0565 68.9625L44.2518 68.8734L43.7789 67.5322C43.5184 66.7946 43.2836 66.185 43.2568 66.1775C43.2296 66.1701 42.9318 66.2617 42.5949 66.3814ZM35.9039 66.5766C35.2299 66.6389 34.6067 66.6914 34.5191 66.6933C34.3787 66.6966 34.3599 66.713 34.3605 66.8315C34.3617 67.0898 34.4136 67.1953 34.5257 67.1684C34.5828 67.1546 34.8836 67.1286 35.1943 67.1099L35.7592 67.0764L35.895 68.7817C35.9696 69.7197 36.0412 70.5366 36.054 70.5973C36.0742 70.6927 36.1081 70.7073 36.3133 70.7073C36.4431 70.7073 36.5592 70.6972 36.5714 70.6853C36.5836 70.673 36.5258 69.846 36.443 68.8477C36.3602 67.8493 36.3043 67.0253 36.3187 67.0171C36.3332 67.0089 36.5656 66.9873 36.8352 66.9691C37.1048 66.9508 37.3983 66.9236 37.4873 66.9083C37.6429 66.8819 37.6485 66.8729 37.6343 66.6787L37.6195 66.4768L37.3744 66.4704C37.2396 66.4667 36.5779 66.5148 35.9039 66.5766ZM38.6979 67.3734C38.1553 67.5359 37.91 67.7312 37.7889 68.0971C37.7075 68.3435 37.756 69.0366 37.8828 69.4357C38.1397 70.2452 38.5787 70.506 39.4135 70.3462C40.123 70.2098 40.4361 69.9921 40.5669 69.5446C40.7528 68.9054 40.432 67.7364 39.99 67.4446C39.7295 67.2728 39.1418 67.2404 38.6979 67.3734ZM39.6434 67.8452C39.8308 68.0025 39.9725 68.3405 40.0474 68.8085C40.1152 69.233 40.0869 69.4682 39.9475 69.6452C39.7313 69.9191 39.002 70.0406 38.736 69.8464C38.4725 69.6541 38.2835 69.0888 38.282 68.4877C38.2813 68.1668 38.2891 68.1437 38.4505 67.992C38.6409 67.8131 38.872 67.7364 39.2458 67.7289C39.4485 67.7252 39.5282 67.7483 39.6434 67.8452ZM24.6253 68.778C24.5853 68.8738 24.5401 69.0139 24.525 69.0895C24.5007 69.2106 24.5163 69.2338 24.6566 69.2826C24.9169 69.3731 24.9961 69.3526 25.0699 69.1764C25.2242 68.8078 25.22 68.7571 25.0287 68.6774C24.7702 68.5697 24.7059 68.5857 24.6253 68.778ZM31.9409 70.0954C31.8295 70.2064 31.8268 70.6842 31.9374 70.7263C32.0734 70.7785 32.3524 70.7583 32.3724 70.695C32.4198 70.5452 32.4445 70.1885 32.4111 70.1371C32.3437 70.0331 32.0309 70.0055 31.9409 70.0954Z" fill="#1480C0"/>
</g>
<defs>
<clipPath id="clip0_35_918">
<rect width="58.136" height="70.0614" fill="white" transform="translate(0.781738 0.870361)"/>
</clipPath>
</defs>
</svg>
