<svg id="co2-icon" width="134" height="103" viewBox="0 0 134 103" fill="none" xmlns="http://www.w3.org/2000/svg">
<path d="M37.3414 80.6359C34.8807 80.6359 32.6069 80.2302 30.52 79.4187C28.4331 78.576 26.6265 77.4056 25.1003 75.9075C23.574 74.4094 22.3748 72.6459 21.5027 70.6172C20.6617 68.5885 20.2412 66.3725 20.2412 63.9693C20.2412 61.566 20.6617 59.3501 21.5027 57.3213C22.3748 55.2926 23.574 53.5292 25.1003 52.0311C26.6577 50.5329 28.4798 49.3781 30.5667 48.5667C32.6536 47.724 34.9274 47.3026 37.3881 47.3026C39.7553 47.3026 41.9824 47.7084 44.0693 48.5198C46.1562 49.3001 47.9161 50.4861 49.3489 52.0779L47.153 54.2783C45.8136 52.905 44.3341 51.9218 42.7144 51.3288C41.0947 50.7046 39.3504 50.3925 37.4815 50.3925C35.5192 50.3925 33.6971 50.7358 32.0151 51.4225C30.3331 52.0779 28.8692 53.0298 27.6233 54.2783C26.3773 55.4955 25.3962 56.9312 24.6798 58.5854C23.9945 60.2084 23.6519 62.003 23.6519 63.9693C23.6519 65.9356 23.9945 67.7458 24.6798 69.4C25.3962 71.023 26.3773 72.4587 27.6233 73.7071C28.8692 74.9243 30.3331 75.8763 32.0151 76.5629C33.6971 77.2183 35.5192 77.5461 37.4815 77.5461C39.3504 77.5461 41.0947 77.2339 42.7144 76.6097C44.3341 75.9855 45.8136 74.9868 47.153 73.6135L49.3489 75.8138C47.9161 77.4056 46.1562 78.6072 44.0693 79.4187C41.9824 80.2302 39.7398 80.6359 37.3414 80.6359Z" fill="#DCDDDC"/>
<path d="M72.6678 80.6359C70.2071 80.6359 67.9177 80.2302 65.7997 79.4187C63.7128 78.576 61.8906 77.4056 60.3332 75.9075C58.807 74.3781 57.6078 72.6147 56.7357 70.6172C55.8947 68.5885 55.4742 66.3725 55.4742 63.9693C55.4742 61.566 55.8947 59.3657 56.7357 57.3682C57.6078 55.3394 58.807 53.576 60.3332 52.0779C61.8906 50.5486 63.7128 49.3781 65.7997 48.5667C67.8866 47.724 70.176 47.3026 72.6678 47.3026C75.1285 47.3026 77.4023 47.724 79.4892 48.5667C81.5761 49.3781 83.3826 50.5329 84.9089 52.0311C86.4663 53.5292 87.6655 55.2926 88.5065 57.3213C89.3786 59.3501 89.8147 61.566 89.8147 63.9693C89.8147 66.3725 89.3786 68.5885 88.5065 70.6172C87.6655 72.6459 86.4663 74.4094 84.9089 75.9075C83.3826 77.4056 81.5761 78.576 79.4892 79.4187C77.4023 80.2302 75.1285 80.6359 72.6678 80.6359ZM72.6678 77.5461C74.6301 77.5461 76.4367 77.2183 78.0875 76.5629C79.7695 75.8763 81.2179 74.9243 82.4326 73.7071C83.6786 72.4587 84.6441 71.023 85.3294 69.4C86.0146 67.7458 86.3573 65.9356 86.3573 63.9693C86.3573 62.003 86.0146 60.2084 85.3294 58.5854C84.6441 56.9312 83.6786 55.4955 82.4326 54.2783C81.2179 53.0298 79.7695 52.0779 78.0875 51.4225C76.4367 50.7358 74.6301 50.3925 72.6678 50.3925C70.7055 50.3925 68.8833 50.7358 67.2013 51.4225C65.5194 52.0779 64.0554 53.0298 62.8095 54.2783C61.5947 55.4955 60.6291 56.9312 59.9127 58.5854C59.2275 60.2084 58.8849 62.003 58.8849 63.9693C58.8849 65.9044 59.2275 67.699 59.9127 69.3532C60.6291 71.0074 61.5947 72.4587 62.8095 73.7071C64.0554 74.9243 65.5194 75.8763 67.2013 76.5629C68.8833 77.2183 70.7055 77.5461 72.6678 77.5461Z" fill="#DCDDDC"/>
<path d="M95.8496 80.355V78.6837L105.367 69.3438C106.239 68.4917 106.893 67.7489 107.329 67.1153C107.765 66.4599 108.06 65.8482 108.212 65.2801C108.365 64.7121 108.441 64.1768 108.441 63.6743C108.441 62.3416 107.983 61.2929 107.067 60.5283C106.174 59.7636 104.844 59.3813 103.077 59.3813C101.726 59.3813 100.526 59.5888 99.4799 60.0039C98.4551 60.419 97.5721 61.0635 96.8307 61.9374L95.1628 60.4955C96.0567 59.4468 97.2014 58.6384 98.5968 58.0704C99.9923 57.5024 101.551 57.2183 103.274 57.2183C104.822 57.2183 106.163 57.4696 107.296 57.9721C108.43 58.4527 109.302 59.1628 109.913 60.1022C110.545 61.0417 110.861 62.145 110.861 63.4122C110.861 64.155 110.752 64.8869 110.534 65.6079C110.338 66.3288 109.967 67.0935 109.422 67.9019C108.899 68.6884 108.125 69.5841 107.1 70.5891L98.3679 79.1753L97.7138 78.2577H111.908V80.355H95.8496Z" fill="#DCDDDC"/>
<path d="M111.183 46.444C111.318 42.142 109.863 37.9463 107.107 34.6955C104.352 31.4447 100.5 29.3782 96.3217 28.909C94.4925 20.7791 90.02 13.5268 83.6374 8.34084C77.2548 3.15494 69.3409 0.343205 61.1929 0.3666C41.2812 0.3666 25.0808 16.9545 25.0808 37.3423C25.0808 38.4345 25.1363 39.5466 25.2475 40.6986C10.9193 43.3324 0.0800781 56.3108 0.0800781 71.4737C0.0800781 88.7243 13.7888 102.761 30.6365 102.761H105.639C120.956 102.761 133.417 90.0014 133.417 74.318C133.441 67.7532 131.237 61.3838 127.181 56.2993C123.125 51.2148 117.47 47.7311 111.183 46.444ZM105.639 98.7789H30.6365C16.85 98.7789 3.96907 85.5871 3.96907 71.4737C3.96907 58.245 15.7222 45.3404 28.6003 44.2767L29.9643 44.0264L29.4476 42.6668C29.1411 40.9091 28.9813 39.1278 28.9698 37.3423C28.9698 20.0917 44.3452 4.3486 61.1929 4.3486C76.1739 4.3486 90.4993 17.0398 92.9605 32.1714L93.3633 32.9422L94.1466 32.8398C94.275 32.8417 94.4031 32.8254 94.5272 32.7914C100.655 32.7914 107.305 39.6007 107.305 45.8752C107.305 46.6488 107.222 47.448 107.053 48.2501L108.066 49.6609L109.497 49.9709C114.993 50.506 120.094 54.8316 123.8 59.0206C127.507 63.2096 129.549 68.6658 129.528 74.318C129.528 86.8642 117.892 98.7789 105.639 98.7789Z" fill="#DCDDDC"/>
</svg>
