<svg width="89" height="103" id="lamp-icon" viewBox="0 0 89 103" fill="none" xmlns="http://www.w3.org/2000/svg">
<path d="M33.4671 95.2673H54.9678C55.5203 95.2673 56.0502 95.0426 56.441 94.6425C56.8317 94.2425 57.0512 93.6999 57.0512 93.1341C57.0512 92.5683 56.8317 92.0258 56.441 91.6257C56.0502 91.2256 55.5203 91.0009 54.9678 91.0009H33.4671C32.9146 91.0009 32.3847 91.2256 31.9939 91.6257C31.6032 92.0258 31.3837 92.5683 31.3837 93.1341C31.3837 93.6999 31.6032 94.2425 31.9939 94.6425C32.3847 95.0426 32.9146 95.2673 33.4671 95.2673ZM33.4671 102.655H54.9678C55.5203 102.655 56.0502 102.43 56.441 102.03C56.8317 101.63 57.0512 101.087 57.0512 100.521C57.0512 99.9557 56.8317 99.4131 56.441 99.013C56.0502 98.613 55.5203 98.3882 54.9678 98.3882H33.4671C32.9146 98.3882 32.3847 98.613 31.9939 99.013C31.6032 99.4131 31.3837 99.9557 31.3837 100.521C31.3837 101.087 31.6032 101.63 31.9939 102.03C32.3847 102.43 32.9146 102.655 33.4671 102.655ZM44.2174 10.7599C44.77 10.7599 45.2999 10.5352 45.6906 10.1351C46.0813 9.73509 46.3008 9.19249 46.3008 8.62673V2.39347C46.3008 1.82771 46.0813 1.28511 45.6906 0.885059C45.2999 0.485003 44.77 0.260254 44.2174 0.260254C43.6649 0.260254 43.135 0.485003 42.7443 0.885059C42.3536 1.28511 42.1341 1.82771 42.1341 2.39347V8.62673C42.1341 9.19249 42.3536 9.73509 42.7443 10.1351C43.135 10.5352 43.6649 10.7599 44.2174 10.7599ZM88.2708 45.3671C88.2708 44.8014 88.0513 44.2588 87.6606 43.8587C87.2699 43.4587 86.74 43.2339 86.1874 43.2339H80.0998C79.5472 43.2339 79.0173 43.4587 78.6266 43.8587C78.2359 44.2588 78.0164 44.8014 78.0164 45.3671C78.0164 45.9329 78.2359 46.4755 78.6266 46.8755C79.0173 47.2756 79.5472 47.5003 80.0998 47.5003H86.1874C86.74 47.5003 87.2699 47.2756 87.6606 46.8755C88.0513 46.4755 88.2708 45.9329 88.2708 45.3671ZM0.164062 45.3671C0.164062 45.9329 0.383563 46.4755 0.774275 46.8755C1.16499 47.2756 1.69491 47.5003 2.24746 47.5003H8.33514C8.88769 47.5003 9.41761 47.2756 9.80832 46.8755C10.199 46.4755 10.4185 45.9329 10.4185 45.3671C10.4185 44.8014 10.199 44.2588 9.80832 43.8587C9.41761 43.4587 8.88769 43.2339 8.33514 43.2339H2.24746C1.69491 43.2339 1.16499 43.4587 0.774275 43.8587C0.383563 44.2588 0.164062 44.8014 0.164062 45.3671ZM72.4224 13.4713L68.1182 17.8785C67.9192 18.0753 67.7605 18.3107 67.6513 18.5709C67.5421 18.8312 67.4846 19.1111 67.4822 19.3944C67.4798 19.6776 67.5325 19.9585 67.6373 20.2207C67.742 20.4828 67.8967 20.721 68.0923 20.9213C68.288 21.1216 68.5206 21.28 68.7766 21.3873C69.0327 21.4945 69.307 21.5485 69.5836 21.546C69.8603 21.5436 70.1336 21.4847 70.3878 21.3729C70.642 21.2611 70.8719 21.0986 71.0641 20.8949L75.3684 16.4876C75.5674 16.2909 75.7261 16.0555 75.8353 15.7952C75.9445 15.5349 76.0019 15.255 76.0043 14.9718C76.0067 14.6885 75.954 14.4076 75.8493 14.1455C75.7445 13.8833 75.5898 13.6451 75.3942 13.4448C75.1986 13.2445 74.966 13.0861 74.7099 12.9789C74.4539 12.8716 74.1795 12.8176 73.9029 12.8201C73.6263 12.8226 73.3529 12.8814 73.0987 12.9932C72.8445 13.105 72.6146 13.2675 72.4224 13.4713ZM13.0665 77.263C13.2596 77.4618 13.4891 77.6195 13.7419 77.7271C13.9946 77.8348 14.2657 77.8902 14.5395 77.8902C14.8133 77.8902 15.0843 77.8348 15.3371 77.7271C15.5899 77.6195 15.8194 77.4618 16.0124 77.263L20.3167 72.8557C20.5157 72.659 20.6744 72.4236 20.7836 72.1633C20.8928 71.9031 20.9503 71.6231 20.9527 71.3399C20.9551 71.0566 20.9024 70.7757 20.7976 70.5136C20.6929 70.2514 20.5382 70.0132 20.3426 69.8129C20.147 69.6126 19.9143 69.4542 19.6583 69.347C19.4023 69.2397 19.1279 69.1858 18.8513 69.1882C18.5746 69.1907 18.3013 69.2495 18.0471 69.3613C17.7929 69.4731 17.563 69.6356 17.3708 69.8394L13.0665 74.2466C12.676 74.6466 12.4565 75.1891 12.4565 75.7548C12.4565 76.3204 12.676 76.8629 13.0665 77.263ZM68.1182 69.8394C67.7276 70.2394 67.5082 70.7819 67.5082 71.3476C67.5082 71.9132 67.7276 72.4557 68.1182 72.8557L72.4224 77.263C72.6155 77.4618 72.845 77.6195 73.0978 77.7271C73.3506 77.8348 73.6216 77.8902 73.8954 77.8902C74.1692 77.8902 74.4403 77.8348 74.693 77.7271C74.9458 77.6195 75.1753 77.4618 75.3684 77.263C75.7589 76.8629 75.9784 76.3204 75.9784 75.7548C75.9784 75.1891 75.7589 74.6466 75.3684 74.2466L71.0641 69.8394C70.6734 69.4395 70.1436 69.2148 69.5911 69.2148C69.0387 69.2148 68.5089 69.4395 68.1182 69.8394ZM16.0124 13.4713C15.8203 13.2675 15.5904 13.105 15.3362 12.9932C15.082 12.8814 14.8086 12.8226 14.532 12.8201C14.2554 12.8176 13.981 12.8716 13.725 12.9789C13.4689 13.0861 13.2363 13.2445 13.0407 13.4448C12.8451 13.6451 12.6904 13.8833 12.5856 14.1455C12.4809 14.4076 12.4282 14.6885 12.4306 14.9718C12.433 15.255 12.4904 15.5349 12.5996 15.7952C12.7088 16.0555 12.8675 16.2909 13.0665 16.4876L17.3708 20.8949C17.5639 21.0936 17.7934 21.2514 18.0461 21.359C18.2989 21.4667 18.57 21.5221 18.8438 21.5221C19.1176 21.5221 19.3886 21.4667 19.6414 21.359C19.8942 21.2514 20.1237 21.0936 20.3167 20.8949C20.7073 20.4948 20.9267 19.9523 20.9267 19.3867C20.9267 18.821 20.7073 18.2785 20.3167 17.8785L16.0124 13.4713ZM30.4879 13.5566C30.8304 13.5563 31.1676 13.4696 31.4696 13.3041C31.7716 13.1385 32.0291 12.8993 32.2192 12.6076C32.4094 12.3158 32.5263 11.9806 32.5598 11.6315C32.5932 11.2825 32.542 10.9303 32.4109 10.6064L30.0816 4.84667C29.8697 4.3239 29.4637 3.90874 28.9528 3.69251C28.442 3.47628 27.8681 3.4767 27.3576 3.69367C26.847 3.91064 26.4416 4.32639 26.2304 4.84946C26.0192 5.37253 26.0196 5.96008 26.2315 6.48285L28.5607 12.2404C28.8941 13.0596 29.6691 13.5566 30.4879 13.5566ZM82.1957 26.9532L76.5705 29.336C76.3177 29.4433 76.088 29.6005 75.8945 29.7987C75.7011 29.9969 75.5476 30.2321 75.443 30.491C75.3383 30.7499 75.2845 31.0274 75.2846 31.3076C75.2846 31.5878 75.3386 31.8653 75.4434 32.1241C75.5482 32.383 75.7017 32.6181 75.8953 32.8162C76.0888 33.0143 76.3186 33.1714 76.5714 33.2786C76.8243 33.3857 77.0953 33.4409 77.3689 33.4408C77.6426 33.4407 77.9136 33.3855 78.1664 33.2782L83.7915 30.8932C84.3021 30.6766 84.7077 30.2611 84.9191 29.7382C85.1304 29.2153 85.1303 28.6279 84.9187 28.1051C84.707 27.5824 84.3013 27.1671 83.7906 26.9507C83.2799 26.7342 82.7062 26.7344 82.1957 26.9511V26.9532ZM10.2685 57.4539L4.64336 59.8389C4.39056 59.9462 4.16087 60.1034 3.96741 60.3016C3.77396 60.4997 3.62052 60.735 3.51585 60.9939C3.41119 61.2528 3.35736 61.5303 3.35742 61.8105C3.35749 62.0907 3.41146 62.3681 3.51625 62.627C3.72787 63.1497 4.13365 63.565 4.64431 63.7814C4.89716 63.8886 5.16816 63.9437 5.44182 63.9437C5.71548 63.9436 5.98644 63.8883 6.23924 63.781L11.8644 61.3961C12.1172 61.2888 12.3469 61.1316 12.5404 60.9334C12.7338 60.7352 12.8873 60.5 12.9919 60.2411C13.0966 59.9822 13.1504 59.7047 13.1503 59.4245C13.1503 59.1443 13.0963 58.8668 12.9915 58.608C12.8867 58.3492 12.7332 58.114 12.5396 57.9159C12.3461 57.7178 12.1163 57.5607 11.8635 57.4535C11.6106 57.3464 11.3396 57.2912 11.066 57.2913C10.7923 57.2914 10.5213 57.3466 10.2685 57.4539ZM57.947 13.5566C58.7658 13.5566 59.5408 13.0596 59.8742 12.2404L62.2034 6.48071C62.308 6.22187 62.3619 5.94445 62.3618 5.6643C62.3618 5.38415 62.3078 5.10675 62.2031 4.84795C62.0983 4.58915 61.9448 4.35401 61.7513 4.15596C61.5578 3.95791 61.328 3.80082 61.0752 3.69367C60.8224 3.58651 60.5515 3.53139 60.2779 3.53145C60.0043 3.53151 59.7334 3.58675 59.4806 3.69402C59.2279 3.80128 58.9982 3.95847 58.8048 4.15661C58.6114 4.35475 58.4579 4.58996 58.3533 4.8488L56.0241 10.6085C55.8933 10.9324 55.8425 11.2843 55.8761 11.633C55.9098 11.9818 56.0268 12.3167 56.2169 12.6082C56.407 12.8996 56.6643 13.1386 56.9661 13.304C57.2678 13.4694 57.6047 13.5562 57.947 13.5566ZM76.5726 61.3982L82.1957 63.7832C82.4485 63.8903 82.7194 63.9455 82.993 63.9454C83.2666 63.9453 83.5375 63.8901 83.7903 63.7828C84.043 63.6756 84.2727 63.5184 84.4661 63.3202C84.6595 63.1221 84.813 62.8869 84.9176 62.628C85.0223 62.3692 85.0761 62.0918 85.076 61.8116C85.076 61.5315 85.022 61.2541 84.9173 60.9953C84.8125 60.7365 84.659 60.5013 84.4655 60.3033C84.272 60.1052 84.0423 59.9481 83.7895 59.841L78.1643 57.4561C77.9115 57.3489 77.6405 57.2938 77.3669 57.2938C77.0933 57.2939 76.8224 57.3491 76.5697 57.4564C76.3169 57.5637 76.0873 57.7209 75.8938 57.919C75.7004 58.1171 75.547 58.3523 75.4423 58.6112C75.3377 58.87 75.2838 59.1475 75.2839 59.4276C75.284 59.7078 75.3379 59.9851 75.4427 60.2439C75.5474 60.5028 75.701 60.7379 75.8945 60.9359C76.088 61.134 76.3177 61.2911 76.5705 61.3982H76.5726ZM6.23716 26.9511C5.98436 26.8439 5.71342 26.7888 5.43981 26.7888C5.16621 26.7889 4.89529 26.8441 4.64253 26.9514C4.38978 27.0587 4.16013 27.2159 3.9667 27.414C3.77327 27.6121 3.61985 27.8473 3.5152 28.1062C3.41055 28.365 3.35672 28.6425 3.35678 28.9226C3.35684 29.2028 3.41079 29.4802 3.51555 29.739C3.62031 29.9978 3.77382 30.2329 3.96733 30.431C4.16085 30.629 4.39056 30.7861 4.64336 30.8932L10.2685 33.2782C10.5213 33.3853 10.7923 33.4405 11.0659 33.4404C11.3395 33.4403 11.6104 33.3851 11.8632 33.2778C12.1159 33.1706 12.3456 33.0134 12.539 32.8152C12.7324 32.6171 12.8858 32.3819 12.9905 32.123C13.0951 31.8642 13.149 31.5868 13.1489 31.3066C13.1489 31.0265 13.0949 30.7491 12.9901 30.4903C12.8854 30.2315 12.7319 29.9963 12.5384 29.7983C12.3448 29.6002 12.1151 29.4431 11.8623 29.336L6.23716 26.9511ZM14.2832 44.3837C14.1448 48.7467 14.9175 53.0896 16.5498 57.1223C18.182 61.1549 20.6361 64.7844 23.7481 67.768C26.1549 70.0674 28.0752 72.8482 29.3899 75.9382C30.7129 79.0634 31.3817 82.3635 31.3817 85.7468C31.3817 86.3125 31.6012 86.8551 31.9919 87.2552C32.3826 87.6552 32.9125 87.88 33.465 87.88H54.9657C55.5182 87.88 56.0482 87.6552 56.4389 87.2552C56.8296 86.8551 57.0491 86.3125 57.0491 85.7468C57.0491 78.9696 59.8408 72.4014 64.7056 67.7275C67.6872 64.8584 70.0645 61.3954 71.6914 57.5513C73.3183 53.7072 74.1605 49.5631 74.1663 45.3735C74.1663 36.9047 70.8662 29.0181 64.8743 23.1731C61.943 20.2908 58.4648 18.0557 54.6553 16.6063C50.8457 15.1568 46.786 14.524 42.7278 14.7469C27.2649 15.5042 14.7728 28.5232 14.2832 44.3837ZM39.1069 49.5653L43.0674 52.251C43.4084 52.4824 43.8084 52.6059 44.2174 52.6059C44.6265 52.6059 45.0265 52.4824 45.3675 52.251L49.328 49.5632L46.6571 83.6136H41.7799L39.109 49.5653H39.1069ZM42.9278 19.0091C50.0676 18.6571 56.8428 21.2319 62.0013 26.262C64.5396 28.7191 66.5589 31.6828 67.9345 34.9703C69.3102 38.2578 70.013 41.7992 69.9995 45.3757C69.9941 48.9818 69.2688 52.5486 67.8679 55.8572C66.4671 59.1658 64.4203 62.1461 61.8534 64.6151C56.6804 69.5919 53.5093 76.3673 52.9615 83.6136H50.8364L53.824 45.5378C53.8551 45.1393 53.7762 44.7398 53.5962 44.385C53.4163 44.0302 53.1427 43.7343 52.8065 43.531C52.4702 43.3278 52.085 43.2253 51.6947 43.2354C51.3044 43.2455 50.9247 43.3677 50.5989 43.588L44.2174 47.912L37.836 43.588C37.5104 43.3668 37.1305 43.2439 36.7399 43.2334C36.3492 43.2229 35.9636 43.3252 35.6271 43.5287C35.2906 43.7321 35.0168 44.0284 34.8371 44.3837C34.6574 44.7391 34.579 45.139 34.6109 45.5378L37.5985 83.6136H35.4734C34.9496 76.3729 31.7781 69.6008 26.5919 64.6493C23.9134 62.0804 21.8014 58.9558 20.3969 55.4841C18.9925 52.0124 18.328 48.2738 18.4479 44.5181C18.8688 30.8655 29.6212 19.6619 42.9278 19.0091Z" fill="#DCDDDC"/>
</svg>
