<svg width="88" height="103" id="nutrition-icon" viewBox="0 0 88 103" fill="none" xmlns="http://www.w3.org/2000/svg">
<path d="M86.2011 34.0504L74.2007 17.6673V9.36198C74.2007 4.35603 70.2006 0.260254 65.3116 0.260254H23.0881C18.1991 0.260254 14.199 4.35603 14.199 9.36198V17.6673L2.19861 34.0504C1.30969 35.1881 0.865234 36.6672 0.865234 38.1462V95.8284C0.865234 99.5828 3.86532 102.655 7.5321 102.655H80.8676C84.5344 102.655 87.5345 99.5828 87.5345 95.8284V38.1462C87.5345 36.6672 87.09 35.3019 86.2011 34.0504ZM18.6435 9.36198C18.6435 6.859 20.6436 4.81112 23.0881 4.81112H65.3116C67.7561 4.81112 69.7562 6.859 69.7562 9.36198V16.1883H60.0892C58.867 13.4578 56.2002 11.6374 53.089 11.6374H35.3107C32.1995 11.6374 29.5328 13.4578 28.3105 16.1883H18.6435V9.36198ZM56.4224 19.6014C56.4224 21.4218 54.978 23.0146 53.089 23.0146H35.3107C33.4218 23.0146 31.9773 21.4218 31.9773 19.6014C31.9773 17.6673 33.4218 16.1883 35.3107 16.1883H53.089C54.978 16.1883 56.4224 17.6673 56.4224 19.6014ZM83.0899 95.8284C83.0899 97.0798 82.0899 98.1038 80.8676 98.1038H7.5321C6.30984 98.1038 5.30981 97.0798 5.30981 95.8284V38.1462C5.30981 37.6911 5.42092 37.236 5.75427 36.7809L17.5324 20.7391H27.6438C28.1994 24.6074 31.4217 27.5654 35.3107 27.5654H53.089C56.978 27.5654 60.2003 24.6074 60.7559 20.7391H70.8673L82.6454 36.7809C82.9788 37.1222 83.0899 37.6911 83.0899 38.1462V95.8284Z" fill="#DCDDDC"/>
<path d="M55.5192 37.8587C51.4654 37.666 39.0221 37.184 27.9925 52.9855C24.6928 57.7073 17.811 69.6543 22.996 80.7345C22.0437 81.7856 21.101 82.8458 20.168 83.9148C19.6023 84.5878 19.6023 85.6485 20.2625 86.2266C20.545 86.5153 20.9221 86.612 21.2992 86.612C21.7702 86.612 22.1479 86.4187 22.5249 86.0333C24.9759 83.2395 29.4068 78.4222 34.2147 73.3155C37.3253 75.2425 40.1538 76.0132 43.642 76.0132C44.3962 76.0132 45.1503 76.0132 45.999 75.9161C46.8477 75.82 47.5062 75.0492 47.4133 74.1824C47.3193 73.3155 46.5646 72.6408 45.7165 72.7369C42.1337 73.0262 39.4942 72.5436 36.5722 70.9071C43.7366 63.391 51.2785 55.4905 54.7667 51.9259C55.4263 51.2512 55.4263 50.2878 54.7667 49.6131C54.106 48.9389 53.1633 48.9389 52.5048 49.6131C49.8642 52.3113 45.3388 57.0326 40.3429 62.2359C40.0604 60.0191 40.2489 57.2253 40.9085 55.7798C41.2856 54.9124 40.9085 53.949 40.1544 53.5636C39.3062 53.1782 38.3636 53.5636 37.9865 54.3343C36.7613 56.936 36.6667 61.8494 37.704 64.8364V64.9331C33.3671 69.4616 28.9368 74.1829 25.4486 78.0362C21.9604 68.7869 27.8056 58.8629 30.6336 54.8169C39.5877 41.9053 49.1085 40.8458 55.4252 41.1345C58.3478 41.2312 61.3649 42.7727 63.2497 44.9884C64.287 46.2406 65.5127 48.1681 65.3236 50.7692C65.1345 53.8529 62.9667 56.55 61.1747 58.2843C57.6877 61.5606 53.2573 63.7763 48.6368 64.6437C47.7893 64.8364 47.1297 65.6083 47.3187 66.5712C47.5056 67.4375 48.2614 68.1128 49.2035 67.9195C52.3147 67.4375 55.4252 66.2808 58.1598 64.6437C59.5741 67.2448 61.1753 71.9667 58.7254 76.4958C55.6143 82.18 47.0346 85.8412 41.096 84.0109C40.2478 83.7216 37.0422 82.6609 33.6485 80.2525C32.8949 79.771 31.9517 79.9632 31.3861 80.7345C30.9145 81.5059 31.1036 82.4693 31.8572 83.0468C34.4027 84.7811 37.5138 86.4193 40.1533 87.1895C41.4736 87.5754 42.9813 87.8647 44.4907 87.8647C51.09 87.8647 58.4429 83.9154 61.5535 78.2295C64.0039 73.7009 63.8164 68.2094 60.8928 63.0061C61.7425 62.3314 62.6847 61.6573 63.4383 60.8865C66.5494 57.8995 68.3418 54.527 68.6233 51.2512C68.8124 48.3608 67.7746 45.4704 65.7018 43.0615C64.4805 41.4855 62.9356 40.2027 61.1761 39.3037C59.4167 38.4047 57.4856 37.9115 55.5192 37.8587Z" fill="#DCDDDC"/>
</svg>
