<svg width="55" height="103" id="temp-icon" viewBox="0 0 55 103" fill="none" xmlns="http://www.w3.org/2000/svg">
<path d="M20.2389 102.415C19.5056 102.415 18.7544 102.415 18.0032 102.287C13.6993 101.747 9.68748 99.7787 6.58281 96.684C3.47814 93.5893 1.45201 89.5391 0.815099 85.1542C0.33021 81.7516 0.716286 78.2786 1.93566 75.074C3.15504 71.8695 5.16609 69.0427 7.77262 66.8695V12.8199C7.77262 9.42528 9.09168 6.16973 11.4396 3.7694C13.7876 1.36906 16.9721 0.0205688 20.2926 0.0205688C23.6131 0.0205688 26.7976 1.36906 29.1455 3.7694C31.4935 6.16973 32.8125 9.42528 32.8125 12.8199V66.8146C35.0472 68.6946 36.844 71.0601 38.0723 73.7391C39.3005 76.4181 39.9294 79.3432 39.9131 82.3018C39.9131 87.6361 37.8403 92.752 34.1507 96.524C30.4611 100.296 25.4568 102.415 20.2389 102.415ZM20.2389 3.67751C17.8671 3.67751 15.5925 4.64072 13.9154 6.35525C12.2383 8.06977 11.2961 10.3952 11.2961 12.8199V67.674C11.2961 67.9579 11.2314 68.2378 11.1073 68.4917C10.9831 68.7456 10.8028 68.9665 10.5807 69.1368C7.87787 71.2091 5.88139 74.0983 4.87403 77.3951C3.86667 80.6918 3.89951 84.2291 4.96788 87.5057C6.03626 90.7823 8.08601 93.6323 10.8268 95.6518C13.5676 97.6713 16.8604 98.758 20.2389 98.758C23.6174 98.758 26.9103 97.6713 29.6511 95.6518C32.3918 93.6323 34.4416 90.7823 35.51 87.5057C36.5783 84.2291 36.6112 80.6918 35.6038 77.3951C34.5964 74.0983 32.6 71.2091 29.8972 69.1368C29.675 68.9665 29.4947 68.7456 29.3706 68.4917C29.2464 68.2378 29.1817 67.9579 29.1817 67.674V12.8199C29.1817 10.3952 28.2396 8.06977 26.5624 6.35525C24.8853 4.64072 22.6107 3.67751 20.2389 3.67751ZM20.2389 95.1011C17.3994 95.0971 14.6455 94.1065 12.4292 92.2918C10.213 90.477 8.66594 87.946 8.04203 85.1141C7.41813 82.2821 7.75441 79.3175 8.9957 76.7066C10.237 74.0958 12.3095 71.9939 14.8732 70.7458V36.59C14.8732 35.1352 15.4385 33.7399 16.4448 32.7112C17.4511 31.6825 18.8158 31.1046 20.2389 31.1046C21.662 31.1046 23.0268 31.6825 24.033 32.7112C25.0393 33.7399 25.6046 35.1352 25.6046 36.59V70.7458C28.1683 71.9939 30.2409 74.0958 31.4821 76.7066C32.7234 79.3175 33.0597 82.2821 32.4358 85.1141C31.8119 87.946 30.2649 90.477 28.0486 92.2918C25.8323 94.1065 23.0784 95.0971 20.2389 95.1011ZM20.2389 34.7615C19.7646 34.7615 19.3096 34.9542 18.9742 35.2971C18.6388 35.64 18.4504 36.1051 18.4504 36.59V71.9709C18.4489 72.3489 18.3329 72.7171 18.1183 73.0249C17.9037 73.3327 17.601 73.565 17.252 73.6897C16.0207 74.1319 14.899 74.8443 13.9657 75.7768C13.0323 76.7094 12.3099 77.8394 11.8492 79.0877C11.3885 80.336 11.2006 81.6723 11.2988 83.0027C11.3969 84.3331 11.7787 85.6254 12.4173 86.789C13.0559 87.9525 13.9359 88.959 14.9955 89.7379C16.0551 90.5168 17.2686 91.0492 18.5509 91.2976C19.8331 91.5461 21.153 91.5046 22.4179 91.1762C23.6828 90.8477 24.8621 90.2402 25.8729 89.3963C26.9058 88.5397 27.7387 87.4584 28.3111 86.2311C28.8835 85.0038 29.181 83.6614 29.1817 82.3018C29.1807 80.4132 28.6075 78.5713 27.541 77.0292C26.4746 75.4871 24.9671 74.3205 23.2258 73.6897C22.8768 73.565 22.5742 73.3327 22.3596 73.0249C22.145 72.7171 22.029 72.3489 22.0275 71.9709V36.59C22.0275 36.1051 21.839 35.64 21.5036 35.2971C21.1682 34.9542 20.7133 34.7615 20.2389 34.7615ZM54.2217 0.0205688H36.336V3.67751H54.2217V0.0205688ZM54.2217 7.33445H43.4903V10.9914H54.2217V7.33445ZM54.2217 14.6483H36.336V18.3053H54.2217V14.6483ZM54.2217 21.9622H43.4903V25.6192H54.2217V21.9622ZM54.2217 29.2761H36.336V32.9331H54.2217V29.2761ZM54.2217 36.59H43.4903V40.2469H54.2217V36.59Z" fill="#DCDDDC"/>
</svg>
