<svg width="78" height="103" id="water-icon" viewBox="0 0 78 103" fill="none" xmlns="http://www.w3.org/2000/svg">
<path d="M39.2368 102.655C29.0699 102.655 19.3194 98.487 12.1302 91.0684C4.94114 83.6497 0.902344 73.5879 0.902344 63.0964C0.902344 32.1012 36.3054 2.06006 37.8162 0.780231C38.2179 0.443921 38.7195 0.260376 39.2368 0.260376C39.7541 0.260376 40.2557 0.443921 40.6574 0.780231C42.1683 2.06006 77.5713 32.1012 77.5713 63.0964C77.5713 68.2912 76.5797 73.4353 74.6532 78.2347C72.7267 83.0342 69.9031 87.3951 66.3434 91.0684C62.7837 94.7417 58.5577 97.6556 53.9068 99.6436C49.2558 101.632 44.271 102.655 39.2368 102.655ZM39.2368 5.64359C32.6523 11.6006 5.41228 37.6626 5.41228 63.0964C5.41228 72.3536 8.97593 81.2317 15.3193 87.7776C21.6626 94.3234 30.266 98.0008 39.2368 98.0008C48.2076 98.0008 56.811 94.3234 63.1544 87.7776C69.4977 81.2317 73.0613 72.3536 73.0613 63.0964C73.0613 37.6626 45.8213 11.6006 39.2368 5.64359ZM39.2368 82.0146C33.8543 82.0146 28.6923 79.8081 24.8863 75.8806C21.0803 71.9531 18.9421 66.6263 18.9421 61.0719H14.4322C14.4322 67.8605 17.0455 74.3712 21.6973 79.1715C26.349 83.9717 32.6582 86.6685 39.2368 86.6685V82.0146Z" fill="#DCDDDC"/>
</svg>
